<svg xmlns="http://www.w3.org/2000/svg" width="1024" height="560" viewBox="0 0 1024 560" role="img" aria-labelledby="title desc">
  <title id="title">שלוש המשפחות הראשיות במטה-מודל</title>
  <desc id="desc">איור שמציג מחיקות, עיוותים והכללות עם אייקון צבעוני לכל משפחה.</desc>
  <defs>
    <linearGradient id="bg" x1="0%" y1="0%" x2="100%" y2="100%">
      <stop offset="0%" stop-color="#f9fbff"/>
      <stop offset="100%" stop-color="#ffffff"/>
    </linearGradient>
    <filter id="softShadow" x="-20%" y="-20%" width="140%" height="140%">
      <feDropShadow dx="0" dy="8" stdDeviation="12" flood-color="#94a3b8" flood-opacity="0.18"/>
    </filter>
  </defs>

  <rect width="1024" height="560" rx="30" fill="url(#bg)"/>

  <g transform="translate(188 170)" filter="url(#softShadow)">
    <circle cx="0" cy="0" r="86" fill="#e8f2ff"/>
    <g transform="translate(-44 -42)" fill="none" stroke-linecap="round" stroke-linejoin="round">
      <path d="M0 18L39 0l43 19-40 20z" fill="#d9ecff" stroke="#1f6fb5" stroke-width="4"/>
      <path d="M0 18v49l42 20V38z" fill="#74b6f2" stroke="#1f6fb5" stroke-width="4"/>
      <path d="M82 19v49L42 87V38z" fill="#4f97dd" stroke="#1f6fb5" stroke-width="4"/>
      <path d="M5 24c6-2 10-6 11-11" stroke="#1f6fb5" stroke-width="4" stroke-dasharray="5 7"/>
      <path d="M0 18c7 2 12 7 14 14" stroke="#1f6fb5" stroke-width="4" stroke-dasharray="5 7"/>
      <path d="M72 62c6-2 10-6 11-11" stroke="#1f6fb5" stroke-width="4" stroke-dasharray="5 7"/>
      <path d="M66 84c7-2 13-7 16-14" stroke="#1f6fb5" stroke-width="4" stroke-dasharray="5 7"/>
    </g>
  </g>

  <g transform="translate(512 170)" filter="url(#softShadow)">
    <circle cx="0" cy="0" r="86" fill="#e5f7ec"/>
    <g transform="translate(-48 -41)" fill="none" stroke-linecap="round" stroke-linejoin="round" stroke="#28a35c" stroke-width="9">
      <path d="M2 18h34c14 0 21 8 21 19 0 10-7 18-17 18h-14"/>
      <path d="M26 55h33c15 0 24 9 24 20 0 13-10 21-26 21H36"/>
      <path d="M14 17v67"/>
      <path d="M85 44c0 20-10 39-30 53"/>
      <path d="M46 87l11 10-2-16"/>
      <path d="M11 16l16 1-10 11"/>
    </g>
  </g>

  <g transform="translate(836 170)" filter="url(#softShadow)">
    <circle cx="0" cy="0" r="86" fill="#f4e9ff"/>
    <g transform="translate(-48 -42)" fill="none" stroke-linecap="round" stroke-linejoin="round" stroke="#8d4fd6" stroke-width="4">
      <circle cx="11" cy="55" r="7" fill="#f4e9ff"/>
      <path d="M0 73c2-8 8-12 17-12 8 0 14 4 16 12"/>
      <circle cx="71" cy="14" r="6" fill="#f4e9ff"/>
      <circle cx="88" cy="14" r="6" fill="#f4e9ff"/>
      <circle cx="105" cy="14" r="6" fill="#f4e9ff"/>
      <path d="M60 30c3-8 9-11 17-11 8 0 14 3 17 11"/>
      <path d="M77 30c3-8 9-11 17-11 8 0 14 3 17 11"/>
      <circle cx="71" cy="78" r="6" fill="#f4e9ff"/>
      <circle cx="88" cy="78" r="6" fill="#f4e9ff"/>
      <circle cx="105" cy="78" r="6" fill="#f4e9ff"/>
      <path d="M60 94c3-8 9-11 17-11 8 0 14 3 17 11"/>
      <path d="M77 94c3-8 9-11 17-11 8 0 14 3 17 11"/>
      <path d="M22 55H51"/>
      <path d="M37 41l14 14-14 14"/>
      <path d="M55 34L71 20"/>
      <path d="M55 76L71 90"/>
      <path d="M71 49v11"/>
      <path d="M88 49v11"/>
      <path d="M105 49v11"/>
    </g>
  </g>

  <g font-family="'Segoe UI', Assistant, Rubik, sans-serif" text-anchor="middle">
    <text x="188" y="326" font-size="26" font-weight="700" fill="#0f172a">(Deletions) מחיקות</text>
    <text x="188" y="360" font-size="14" font-weight="600" fill="#334155" letter-spacing="1.4">DELETIONS - REMOVING INFORMATION</text>

    <text x="512" y="326" font-size="26" font-weight="700" fill="#0f172a">(Distortions) עיוותים</text>
    <text x="512" y="360" font-size="14" font-weight="600" fill="#334155" letter-spacing="1.4">DISTORTIONS - ALTERING REALITY</text>

    <text x="836" y="326" font-size="26" font-weight="700" fill="#0f172a">(Generalizations) הכללות</text>
    <text x="836" y="360" font-size="14" font-weight="600" fill="#334155" letter-spacing="1.4">GENERALIZATIONS - APPLYING TO ALL</text>
  </g>
</svg>
