<svg xmlns="http://www.w3.org/2000/svg" viewBox="0 0 64 64" role="img" aria-labelledby="title desc">
  <title id="title">Philosopher Guide</title>
  <desc id="desc">A friendly philosopher avatar with glasses and a small scroll.</desc>
  <defs>
    <linearGradient id="bg" x1="0" x2="1" y1="0" y2="1">
      <stop offset="0%" stop-color="#fff8cc"/>
      <stop offset="100%" stop-color="#dbeafe"/>
    </linearGradient>
  </defs>
  <rect x="2" y="2" width="60" height="60" rx="14" fill="url(#bg)" stroke="#cbd5e1"/>
  <circle cx="32" cy="24" r="12" fill="#fde68a" stroke="#b45309" stroke-width="1.2"/>
  <path d="M20 22c2-6 8-10 12-10s10 4 12 10" fill="#64748b"/>
  <path d="M22 20c2-4 6-7 10-7s8 3 10 7" fill="#334155"/>
  <circle cx="27.5" cy="25" r="4.2" fill="none" stroke="#0f172a" stroke-width="1.4"/>
  <circle cx="36.5" cy="25" r="4.2" fill="none" stroke="#0f172a" stroke-width="1.4"/>
  <path d="M31.7 25h0.6" stroke="#0f172a" stroke-width="1.4" stroke-linecap="round"/>
  <circle cx="28" cy="25.5" r="0.8" fill="#0f172a"/>
  <circle cx="36" cy="25.5" r="0.8" fill="#0f172a"/>
  <path d="M29 31c1.1 1.2 4.9 1.2 6 0" fill="none" stroke="#7c2d12" stroke-width="1.4" stroke-linecap="round"/>
  <path d="M21 41c2-6 7-9 11-9s9 3 11 9" fill="#93c5fd" stroke="#3b82f6" stroke-width="1.2"/>
  <path d="M20 50c2-5 7-7 12-7s10 2 12 7" fill="#1d4ed8" opacity="0.16"/>
  <rect x="40" y="36" width="14" height="10" rx="2.5" fill="#fff" stroke="#94a3b8"/>
  <path d="M42.5 40h9M42.5 43h6.5" stroke="#475569" stroke-width="1.2" stroke-linecap="round"/>
  <path d="M45 47l2.5 4 2.5-4" fill="#fff" stroke="#94a3b8" stroke-linejoin="round"/>
  <path d="M14 48c3 0 4.5-1.8 6-4" fill="none" stroke="#0f766e" stroke-width="2" stroke-linecap="round"/>
  <circle cx="14" cy="48" r="1.8" fill="#0f766e"/>
</svg>
