<svg width="800" height="600" viewBox="0 0 800 600" xmlns="http://www.w3.org/2000/svg">
  <rect width="800" height="600" fill="#f7fafc"/>
  <rect y="450" width="800" height="150" fill="#e2e8f0"/>
  
  <rect x="400" y="200" width="250" height="180" fill="white" stroke="#cbd5e0" stroke-width="3"/>
  <rect x="400" y="200" width="250" height="30" fill="#cbd5e0"/>
  <rect x="420" y="250" width="210" height="20" fill="#edf2f7"/>
  <rect x="420" y="290" width="100" height="30" fill="#e53e3e"/>

  <g transform="translate(200, 250)">
    <rect x="20" y="60" width="60" height="190" rx="10" fill="#718096"/>
    <circle cx="50" cy="30" r="35" fill="#e2e8f0"/>
    <rect x="-20" y="100" width="50" height="70" fill="white" stroke="#2d3748" stroke-width="1"/>
    <line x1="-15" y1="110" x2="25" y2="110" stroke="#cbd5e0"/>
    <line x1="-15" y1="120" x2="25" y2="120" stroke="#cbd5e0"/>
  </g>

  <g transform="translate(100, 100)">
    <path d="M0,0 h220 a10,10 0 0 1 10,10 v60 a10,10 0 0 1 -10,10 h-100 l-20,20 l-20,-20 h-80 a10,10 0 0 1 -10,-10 v-60 a10,10 0 0 1 10,-10 z" fill="white" stroke="#cbd5e0" stroke-width="2"/>
    <text x="110" y="40" text-anchor="middle" font-family="Arial" font-size="18" fill="#2d3748" direction="rtl">האתר תקוע, לא נותן להמשיך.</text>
  </g>

  <g transform="translate(450, 80)">
    <path d="M0,0 h220 a10,10 0 0 1 10,10 v60 a10,10 0 0 1 -10,10 h-150 l-20,20 l-20,-20 h-50 a10,10 0 0 1 -10,-10 v-60 a10,10 0 0 1 10,-10 z" fill="white" stroke="#cbd5e0" stroke-width="2"/>
    <text x="110" y="40" text-anchor="middle" font-family="Arial" font-size="18" fill="#2d3748" direction="rtl">חסר לך טופס סרוק בפורמט PDF.</text>
  </g>

  <rect y="540" width="800" height="60" fill="#48bb78"/>
  <text x="400" y="580" text-anchor="middle" font-family="Arial" font-size="24" font-weight="bold" fill="white" direction="rtl">זיהוי חסמים טכניים בתהליך</text>
</svg>
