<svg width="800" height="600" viewBox="0 0 800 600" xmlns="http://www.w3.org/2000/svg">
  <rect width="800" height="600" fill="#fff5f7"/>
  <rect y="450" width="800" height="150" fill="#fed7e2"/>
  
  <g transform="translate(200, 250)">
    <rect x="20" y="60" width="60" height="190" rx="10" fill="#b83280"/>
    <circle cx="50" cy="30" r="35" fill="#fbb6ce"/>
    <line x1="80" y1="120" x2="110" y2="100" stroke="#b83280" stroke-width="8"/>
    <circle cx="110" cy="100" r="10" fill="white" stroke="#2d3748" stroke-width="2"/>
  </g>

  <g transform="translate(500, 250)">
    <rect x="20" y="60" width="60" height="190" rx="10" fill="#4a5568"/>
    <circle cx="50" cy="30" r="35" fill="#cbd5e0"/>
  </g>

  <g transform="translate(150, 100)">
    <path d="M0,0 h220 a10,10 0 0 1 10,10 v60 a10,10 0 0 1 -10,10 h-100 l-20,20 l-20,-20 h-80 a10,10 0 0 1 -10,-10 v-60 a10,10 0 0 1 10,-10 z" fill="white" stroke="#cbd5e0" stroke-width="2"/>
    <text x="110" y="40" text-anchor="middle" font-family="Arial" font-size="18" fill="#2d3748" direction="rtl">קבענו ב-8, כבר 8 וחצי!</text>
  </g>

  <g transform="translate(480, 120)">
    <path d="M0,0 h220 a10,10 0 0 1 10,10 v60 a10,10 0 0 1 -10,10 h-150 l-20,20 l-20,-20 h-50 a10,10 0 0 1 -10,-10 v-60 a10,10 0 0 1 10,-10 z" fill="white" stroke="#cbd5e0" stroke-width="2"/>
    <text x="110" y="40" text-anchor="middle" font-family="Arial" font-size="18" fill="#2d3748" direction="rtl">נתקעתי בישיבה, מצטער.</text>
  </g>

  <rect y="540" width="800" height="60" fill="#48bb78"/>
  <text x="400" y="580" text-anchor="middle" font-family="Arial" font-size="24" font-weight="bold" fill="white" direction="rtl">כבוד לזמן הוא כבוד לאדם</text>
</svg>
