<svg width="800" height="600" viewBox="0 0 800 600" xmlns="http://www.w3.org/2000/svg">
  <rect width="800" height="600" fill="#2d3748"/>
  <rect y="450" width="800" height="150" fill="#1a202c"/>
  
  <rect x="350" y="200" width="300" height="200" fill="black" stroke="#48bb78" stroke-width="2"/>
  <text x="370" y="240" font-family="monospace" font-size="14" fill="#48bb78">&gt; sudo apt-get install...</text>
  <text x="370" y="270" font-family="monospace" font-size="14" fill="#e53e3e">Error: Driver missing</text>

  <g transform="translate(150, 250)">
    <rect x="20" y="60" width="60" height="190" rx="10" fill="#38b2ac"/>
    <circle cx="50" cy="30" r="35" fill="#b2f5ea"/>
  </g>

  <g transform="translate(80, 80)">
    <path d="M0,0 h220 a10,10 0 0 1 10,10 v60 a10,10 0 0 1 -10,10 h-100 l-20,20 l-20,-20 h-80 a10,10 0 0 1 -10,-10 v-60 a10,10 0 0 1 10,-10 z" fill="white" stroke="#cbd5e0" stroke-width="2"/>
    <text x="110" y="40" text-anchor="middle" font-family="Arial" font-size="18" fill="#2d3748" direction="rtl">האינטרנט מת אחרי ההתקנה.</text>
  </g>

  <g transform="translate(400, 80)">
    <path d="M0,0 h250 a10,10 0 0 1 10,10 v60 a10,10 0 0 1 -10,10 h-180 l-20,20 l-20,-20 h-50 a10,10 0 0 1 -10,-10 v-60 a10,10 0 0 1 10,-10 z" fill="white" stroke="#cbd5e0" stroke-width="2"/>
    <text x="125" y="40" text-anchor="middle" font-family="Arial" font-size="18" fill="#2d3748" direction="rtl">צריך להוריד דרייבר ממחשב אחר.</text>
  </g>

  <rect y="540" width="800" height="60" fill="#48bb78"/>
  <text x="400" y="580" text-anchor="middle" font-family="Arial" font-size="24" font-weight="bold" fill="white" direction="rtl">פתרון בעיות: בידוד המשתנה החסר</text>
</svg>
