<svg width="800" height="600" viewBox="0 0 800 600" xmlns="http://www.w3.org/2000/svg">
  <rect width="800" height="600" fill="#fff5f5"/>
  <rect y="450" width="800" height="150" fill="#fed7d7"/>
  
  <rect x="250" y="350" width="300" height="150" fill="#718096"/>
  <rect x="300" y="250" width="200" height="120" fill="#2d3748" stroke="#1a202c" stroke-width="5"/>
  <rect x="310" y="260" width="180" height="100" fill="#f56565"/>
  <text x="400" y="320" text-anchor="middle" font-size="40" fill="white">!</text>

  <g transform="translate(150, 260)">
    <rect x="20" y="60" width="60" height="190" rx="10" fill="#2c5282"/>
    <circle cx="50" cy="30" r="35" fill="#90cdf4"/>
  </g>

  <g transform="translate(450, 80)">
    <path d="M0,0 h220 a10,10 0 0 1 10,10 v60 a10,10 0 0 1 -10,10 h-100 l-20,20 l-20,-20 h-80 a10,10 0 0 1 -10,-10 v-60 a10,10 0 0 1 10,-10 z" fill="white" stroke="#cbd5e0" stroke-width="2"/>
    <text x="110" y="40" text-anchor="middle" font-family="Arial" font-size="18" fill="#e53e3e" direction="rtl" font-weight="bold">יש באג קריטי בפרודקשן!</text>
  </g>

  <g transform="translate(100, 100)">
    <path d="M0,0 h240 a10,10 0 0 1 10,10 v60 a10,10 0 0 1 -10,10 h-80 l-20,20 l-20,-20 h-120 a10,10 0 0 1 -10,-10 v-60 a10,10 0 0 1 10,-10 z" fill="white" stroke="#cbd5e0" stroke-width="2"/>
    <text x="120" y="40" text-anchor="middle" font-family="Arial" font-size="18" fill="#2d3748" direction="rtl">לתקן מהר או לעשות Rollback?</text>
  </g>

  <rect y="540" width="800" height="60" fill="#48bb78"/>
  <text x="400" y="580" text-anchor="middle" font-family="Arial" font-size="24" font-weight="bold" fill="white" direction="rtl">ניהול משבר: קודם עוצרים את הדימום</text>
</svg>
